<!DOCTYPE svg PUBLIC "-//W3C//DTD SVG 20010904//EN" "http://www.w3.org/TR/2001/REC-SVG-20010904/DTD/svg10.dtd">
<svg version="1.0" xmlns="http://www.w3.org/2000/svg" width="394px" height="51px" viewBox="0 0 3940 510" preserveAspectRatio="xMidYMid meet">
<g id="layer101" fill="#f5f3f1" stroke="none">
 <path d="M437 494 c-4 -4 -7 -32 -7 -62 l0 -55 45 5 45 6 0 -114 0 -114 -45 0 -46 0 3 -57 3 -58 150 0 150 0 3 57 3 58 -41 0 -40 0 0 110 0 110 40 0 41 0 -3 58 -3 57 -146 3 c-80 1 -148 -1 -152 -4z"/>
 <path d="M833 493 c-9 -3 -13 -27 -13 -67 0 -57 4 -68 35 -109 19 -25 35 -48 35 -52 0 -3 -16 -29 -35 -58 -29 -42 -35 -61 -35 -103 0 -58 7 -64 70 -64 60 0 70 7 70 51 0 40 33 99 54 99 20 0 56 -69 56 -105 0 -39 18 -49 86 -43 l39 3 3 61 c3 56 0 63 -33 107 l-36 47 36 46 c33 44 35 52 35 121 l0 74 -62 -3 -63 -3 -3 -51 c-2 -39 -10 -59 -32 -85 l-29 -34 -25 30 c-20 23 -25 41 -26 81 0 38 -4 54 -16 58 -18 7 -93 7 -111 -1z"/>
 <path d="M1302 488 c-17 -17 -17 -419 0 -436 14 -14 295 -17 316 -3 9 5 12 25 10 57 l-3 49 -97 3 c-96 3 -98 3 -98 27 0 23 3 24 73 27 l72 3 3 53 3 52 -75 0 -76 0 0 30 0 29 98 3 97 3 0 55 0 55 -155 3 c-113 2 -159 -1 -168 -10z"/>
 <path d="M1717 493 c-4 -3 -7 -104 -7 -224 0 -241 -4 -229 70 -229 72 0 70 -6 70 176 l0 164 45 0 45 0 0 -60 0 -60 65 0 65 0 0 120 0 120 -173 0 c-96 0 -177 -3 -180 -7z"/>
 <path d="M2163 493 c-10 -3 -13 -58 -13 -224 l0 -219 25 -6 c55 -14 87 3 155 80 l65 74 3 -71 c2 -42 8 -75 15 -79 14 -9 89 -10 111 -2 14 5 16 35 16 224 0 242 4 230 -70 230 -62 0 -70 -7 -70 -57 0 -40 -6 -53 -52 -110 l-53 -65 -3 108 c-2 71 -7 111 -15 116 -13 8 -95 9 -114 1z"/>
 <path d="M2637 494 c-4 -4 -7 -105 -7 -225 0 -188 2 -218 16 -223 31 -12 299 -7 312 6 13 13 16 66 6 92 -5 13 -24 16 -100 16 -93 0 -94 0 -94 25 0 23 3 24 68 27 l67 3 3 53 3 52 -70 0 -71 0 0 30 0 29 98 3 97 3 0 55 0 55 -161 3 c-88 1 -163 -1 -167 -4z"/>
 <path d="M12 268 l3 -223 70 -3 c39 -2 103 0 143 3 61 6 79 12 105 35 30 26 32 33 35 108 4 88 -11 136 -50 161 -11 7 -56 16 -100 18 l-78 6 0 58 0 59 -65 0 -65 0 2 -222z m216 -20 c13 -13 16 -47 6 -72 -4 -11 -19 -16 -50 -16 l-44 0 0 50 0 50 38 0 c21 0 43 -5 50 -12z"/>
 <path d="M3085 480 c-3 -5 -15 -35 -25 -66 -17 -47 -20 -84 -20 -209 0 -170 -2 -165 70 -165 71 0 70 -1 70 134 l1 121 25 -47 c22 -43 28 -48 59 -48 31 0 37 5 59 48 l25 47 1 -116 c0 -75 4 -119 12 -127 13 -13 85 -16 112 -6 14 5 16 29 16 158 0 131 -4 160 -23 216 l-23 65 -64 3 -65 3 -18 -61 c-23 -79 -42 -79 -64 0 l-16 60 -63 0 c-35 0 -66 -4 -69 -10z"/>
 <path d="M3570 435 l0 -55 99 0 c59 0 102 -4 106 -10 10 -16 -15 -40 -41 -40 -47 0 -127 -23 -145 -41 -16 -16 -19 -34 -19 -103 0 -82 1 -85 31 -110 29 -25 35 -26 160 -26 l130 0 -3 52 -3 53 -85 3 c-47 2 -89 7 -94 12 -14 14 13 40 40 40 47 0 127 23 145 41 16 16 19 34 19 100 0 76 -2 82 -29 110 l-29 29 -141 0 -141 0 0 -55z"/>
 </g>

</svg>